<?xml version="1.0" standalone="no"?>
<!DOCTYPE svg PUBLIC "-//W3C//DTD SVG 20010904//EN" "http://www.w3.org/TR/2001/REC-SVG-20010904/DTD/svg10.dtd">
<svg version="1.0" xmlns="http://www.w3.org/2000/svg"
    width="500.000000pt" height="500.000000pt" viewBox="0 0 500.000000 500.000000"
    preserveAspectRatio="xMidYMid meet">

    <g transform="translate(0.000000,500.000000) scale(0.100000,-0.100000)"
        fill="#48258c" stroke="none">
        <path
            d="M2830 3345 c-19 -19 -40 -35 -48 -35 -7 0 -10 -5 -6 -11 4 -7 21 4
45 27 l39 38 52 -51 51 -51 -31 -40 -32 -39 29 -54 c16 -30 35 -74 42 -99 15
-56 32 -70 81 -70 l38 0 0 -69 0 -70 -51 -3 -52 -3 -14 -55 c-8 -30 -28 -79
-44 -109 l-31 -54 36 -36 36 -37 -53 -52 -52 -52 -35 35 -35 35 -80 -40 c-44
-22 -89 -40 -100 -40 -32 0 -45 -20 -45 -67 l0 -43 -74 0 -75 0 -4 43 c-4 38
-4 37 -3 -8 l1 -50 85 0 85 0 3 52 3 51 52 17 c28 9 73 28 101 42 l49 25 36
-36 36 -36 62 62 63 62 -37 38 -37 38 24 42 c13 23 31 67 40 97 l18 56 51 3
51 3 0 89 0 89 -51 3 -51 3 -19 60 c-10 33 -30 78 -43 100 l-25 40 37 38 36
37 -60 60 -60 60 -34 -35z" />
        <path
            d="M2067 3312 l-57 -57 36 -36 35 -35 -36 -74 c-19 -41 -35 -81 -34 -90
0 -8 6 1 13 20 8 20 26 60 40 89 l28 53 -31 32 c-17 18 -31 36 -31 42 0 5 22
32 50 59 l50 49 38 -37 37 -36 30 19 c17 11 26 20 22 20 -4 0 -18 -7 -30 -15
-22 -14 -25 -13 -57 20 -19 19 -37 35 -40 35 -3 0 -31 -26 -63 -58z" />
        <path d="M2294 3264 c-18 -14 -18 -14 6 -3 31 14 36 19 24 19 -6 0 -19 -7 -30
-16z" />
        <path
            d="M2788 3187 c29 -31 67 -87 85 -124 30 -63 32 -76 32 -173 0 -94 -3
-111 -28 -164 -73 -158 -198 -239 -397 -259 -34 -4 -33 -4 6 -5 300 -12 518
292 413 574 -27 71 -73 138 -122 176 -41 31 -41 31 11 -25z" />
        <path
            d="M2186 3180 c-68 -73 -108 -165 -114 -259 -2 -42 0 -91 4 -109 7 -23
9 -3 9 75 0 101 2 113 32 175 17 37 53 90 79 118 26 27 44 50 42 50 -3 0 -26
-23 -52 -50z" />
        <path
            d="M2412 3107 c-18 -18 -32 -42 -32 -52 1 -15 5 -11 14 11 8 17 26 40
41 52 15 12 23 22 18 22 -5 0 -23 -15 -41 -33z" />
        <path
            d="M2574 3110 c59 -90 38 -159 -61 -196 l-38 -15 40 5 c59 8 105 60 105
121 0 36 -6 51 -31 77 -23 24 -27 26 -15 8z" />
        <path d="M2378 3005 c2 -14 8 -27 12 -30 4 -2 5 7 2 20 -2 14 -8 27 -12 30 -4
2 -5 -7 -2 -20z" />
        <path
            d="M2000 2987 c0 -14 -10 -17 -55 -17 l-56 0 3 -82 3 -83 50 -3 c27 -2
53 -9 57 -15 5 -8 8 -6 8 6 0 14 -9 17 -55 17 l-55 0 0 75 0 75 50 0 c36 0 52
4 57 15 3 9 3 19 -1 22 -3 4 -6 -1 -6 -10z" />
        <path
            d="M2329 2857 c-58 -39 -79 -81 -79 -158 l0 -69 48 2 47 1 -44 4 -43 4
4 69 c4 80 23 112 84 147 21 13 34 23 28 23 -6 0 -26 -10 -45 -23z" />
        <path
            d="M2564 2858 l-19 -21 33 19 c32 18 33 18 70 -1 56 -30 82 -77 82 -146
l0 -57 -97 -7 c-143 -9 -143 -13 -4 -14 l124 -1 -5 76 c-6 83 -21 113 -78 152
-42 28 -81 28 -106 0z" />
        <path d="M2011 2760 c0 -8 4 -24 9 -35 5 -13 9 -14 9 -5 0 8 -4 24 -9 35 -5
13 -9 14 -9 5z" />
        <path d="M2100 2736 c0 -11 30 -66 36 -66 2 0 -3 15 -12 33 -19 36 -24 44 -24
33z" />
    </g>
</svg>